Coordinates
version=1
nRows=14
nColumns=33
inDegrees=yes

Units are S.I. units (second, meters, Newtons, ...)
Angles are in degrees.

endheader
time	ground_thorax_rot_x	ground_thorax_rot_y	ground_thorax_rot_z	ground_thorax_tx	ground_thorax_ty	ground_thorax_tz	clav_prot_r	clav_elev_r	scapula_abduction_r	scapula_elevation_r	scapula_upward_rot_r	scapula_winging_r	shoulder_elv_r	plane_of_elev_r	axial_rot_r	elbow_flexion_r	pro_sup_r	wrist_flex_r	wrist_dev_r	clav_prot_l	clav_elev_l	scapula_abduction_l	scapula_elevation_l	scapula_upward_rot_l	scapula_winging_l	shoulder_elv_l	plane_of_elev_l	axial_rot_l	elbow_flexion_l	pro_sup_l	wrist_flex_l	wrist_dev_l
      7.63000000	     -2.36361437	      5.09096726	      9.34780457	     -0.09901083	      1.02511345	      0.01742866	     15.09252967	    -15.34809437	     33.43640684	    -12.71436500	     13.99913511	     -7.48341516	     -5.60081074	    -58.36275145	    120.72876620	    -49.94325877	   -154.04200610	      2.21668226	      5.74778186	     22.74089997	    -10.74891519	    -33.72369047	     -8.20418542	    -28.96340190	      9.97731401	     58.17465401	     -1.96101511	      9.68285241	     28.16758525	     18.88078627	     17.99558669	     -9.20547262
      7.64000000	     -2.26977129	      4.94522039	      9.57828559	     -0.09969541	      1.02501713	      0.01740797	     14.77253213	    -15.00551509	     32.71880691	    -12.30278993	     13.62715024	     -7.40314736	     -6.25144011	    -58.63766340	    120.85743565	    -51.44424796	   -154.28011989	      2.47764446	      5.69993243	     22.46206080	    -10.40191715	    -33.30923546	     -8.67270622	    -29.29138786	      9.77152572	     57.89099972	     -2.23216498	     10.34754963	     29.61683290	     19.17196985	     18.02459360	     -9.63975847
      7.65000000	     -2.31149966	      4.92624265	      9.62836513	     -0.10032681	      1.02573843	      0.01739295	     14.55056996	    -15.36460812	     31.89775971	    -12.38798237	     12.88397745	     -6.87023883	     -6.97625385	    -59.10082288	    120.19175733	    -53.26643847	   -155.44996417	      2.36430569	      5.27250064	     22.12082484	    -10.33795719	    -32.76042736	     -8.89392811	    -29.60236263	      9.43605948	     58.26791609	     -2.92308773	     10.40056804	     31.50080861	     21.44483754	     18.37712794	    -10.48830574
      7.66000000	     -2.17144823	      4.76927528	      9.81669211	     -0.10110805	      1.02580963	      0.01738049	     14.29645755	    -15.01254724	     31.28194728	    -11.95969794	     12.50626139	     -6.84255298	     -7.62634987	    -59.47057383	    120.23133258	    -54.81675744	   -155.67774654	      2.68432119	      5.15016909	     21.86681772	    -10.01532204	    -32.38599495	     -9.35845055	    -29.96694443	      9.23964602	     58.01627716	     -3.28041694	     10.95375232	     33.07212631	     21.49370997	     18.34806659	    -10.85262635
      7.67000000	     -2.05376056	      4.63512921	     10.02579313	     -0.10191362	      1.02597111	      0.01735974	     14.12561773	    -14.74589444	     30.69451863	    -11.54758953	     11.96247210	     -6.78370775	     -8.33051429	    -59.87056224	    120.04792862	    -56.48433991	   -156.01804450	      2.98585331	      4.93625671	     21.61734909	     -9.76775966	    -32.01738740	     -9.79339361	    -30.40462109	      9.02525605	     57.93212741	     -3.83773470	     11.13122258	     34.83146375	     21.63358176	     18.34104400	    -11.22131350
      7.68000000	     -2.08862055	      4.50656963	      9.95813675	     -0.10225570	      1.02712821	      0.01732553	     13.88827584	    -15.22952877	     30.04984807	    -11.85001893	     11.55250965	     -6.22558761	     -9.77143503	    -60.70134431	    118.82636490	    -58.33677207	   -157.88289516	      3.15734586	      4.00002367	     21.09312208	     -9.74930186	    -31.14674122	     -9.89519390	    -30.52058270	      8.51700322	     58.36192869	     -4.95387102	     11.02598095	     36.86960389	     22.88058994	     18.78616968	    -11.51145093
      7.69000000	     -1.93363286	      4.37054964	     10.14785962	     -0.10310184	      1.02704075	      0.01726299	     13.72434660	    -14.78761355	     29.50953017	    -11.29144451	     11.05272566	     -6.29309467	    -10.44681735	    -61.16153504	    118.81637578	    -60.03953762	   -158.11955544	      3.55453971	      3.83439252	     20.87473885	     -9.34366436	    -30.84566496	    -10.47037318	    -30.96312724	      8.36177087	     58.18347157	     -5.44766117	     11.02941744	     38.67041023	     22.75362802	     18.77939872	    -11.87925399
      7.70000000	     -1.90043443	      4.27205733	     10.28308041	     -0.10387448	      1.02751309	      0.01730185	     13.67835218	    -14.80778839	     28.98587184	    -11.04775963	     10.28586199	     -6.10356302	    -11.51425545	    -61.68137893	    117.98081746	    -61.89744749	   -159.10530222	      4.05320947	      3.12817387	     20.54037624	     -9.22672945	    -30.31582625	    -10.74127976	    -31.27875580	      8.04432783	     58.49963871	     -6.58351167	     10.50033966	     40.72700680	     22.71794328	     18.98518924	    -12.08790973
      7.71000000	     -1.70351083	      4.09547274	     10.44423672	     -0.10452064	      1.02751239	      0.01717518	     13.45330358	    -14.41868038	     28.37911587	    -10.55232866	      9.83977592	     -6.09324602	    -12.28668412	    -62.37941110	    117.94341106	    -63.65956883	   -159.37832264	      4.49105953	      2.90581050	     20.27400286	     -8.81464156	    -29.93694459	    -11.33487079	    -31.73664411	      7.83418978	     58.28798932	     -7.14635458	     10.62046330	     42.58832231	     22.46996845	     18.96483733	    -12.36937520
      7.72000000	     -1.72927968	      4.00443366	     10.51839438	     -0.10508976	      1.02819172	      0.01716006	     13.36860182	    -14.71598024	     27.74396022	    -10.52174620	      8.98859301	     -5.69233986	    -13.60918384	    -63.14505536	    116.80606166	    -65.60478886	   -160.61937248	      5.21404736	      1.83927376	     19.83736258	     -8.73201001	    -29.22437992	    -11.53079699	    -31.94096147	      7.42334401	     58.78781313	     -8.57043334	      9.79796543	     44.72537737	     21.99442443	     19.17246863	    -12.29097219
      7.73000000	     -1.51720240	      3.85116912	     10.27351743	     -0.10565464	      1.02812184	      0.01712771	     13.14971672	    -14.24283654	     27.21992859	     -9.98868910	      8.66225148	     -5.75206737	    -14.15801729	    -63.67317152	    116.83014827	    -67.51857004	   -160.76700793	      5.66360000	      1.67938891	     19.64162861	     -8.24947120	    -28.95522427	    -12.12088569	    -32.26210945	      7.28908817	     58.66750965	     -8.96458311	     10.02120745	     46.47448456	     21.71322534	     19.10175650	    -12.56650703
      7.74000000	     -1.32180237	      3.78302708	     10.42382417	     -0.10623030	      1.02777856	      0.01689415	     12.97279638	    -13.77894581	     26.58096805	     -9.34552470	      8.01315785	     -5.76692616	    -14.89782874	    -64.47212120	    116.80650181	    -69.36666022	   -160.94316269	      6.13873774	      1.43758494	     19.39295933	     -7.78162750	    -28.61003587	    -12.77317628	    -32.73252111	      7.08435831	     58.49700468	     -9.60144091	      9.98965736	     48.50104327	     21.38428298	     19.06257353	    -12.88194716
      7.75000000	     -1.50110429	      3.55281591	     10.63706527	     -0.10622128	      1.02946527	      0.01662396	     12.61678992	    -15.06379332	     25.37038978	    -10.12601013	      6.94952609	     -4.55570238	    -17.09943484	    -66.08161243	    114.81014693	    -71.14075832	   -163.17264961	      7.66618579	     -1.09678993	     18.57083906	     -7.86214156	    -27.19217532	    -12.69724511	    -32.61049061	      6.31767018	     59.15104447	    -11.98829875	      8.65362320	     50.73770747	     19.57585952	     19.17848510	    -12.06399506
      7.76000000	     -1.28286562	      3.46019393	     10.82571540	     -0.10686794	      1.02894496	      0.01647089	     12.41988362	    -14.45465688	     24.71445382	     -9.34182203	      6.30122985	     -4.64995895	    -17.83427588	    -66.78455109	    114.79623495	    -72.86935051	   -163.37101437	      8.14385773	     -1.31959161	     18.34828428	     -7.28909870	    -26.89351340	    -13.44508671	    -33.07974395	      6.14526455	     58.93874051	    -12.64513415	      8.35676172	     52.62378189	     19.20789642	     19.12975870	    -12.35471685
